<svg xmlns="http://www.w3.org/2000/svg" viewBox="80.1 81.5 435.1 431">
	<path d="M 297.6 380.9 c -40.4 0 -74.1 -28.6 -82.1 -66.6 H 81.1 c 9.5 110.5 102.2 197.2 215.1 197.2 s 205.7 -86.7 215.1 -197.2 H 379.7 C 371.7 352.4 338 380.9 297.6 380.9 z

M347.1,297L347.1,297C347,297,347,297,347.1,297c-0.1-6.1-1.2-11.9-3.2-17.3
			c-7-18.8-25.1-32.1-46.3-32.1s-39.3,13.4-46.3,32.1c-2,5.4-3.1,11.2-3.1,17.3c0,0,0,0,0,0h0.1c0,0,0,0,0,0
			c0,6.1,1.1,11.9,3.1,17.3c7,18.8,25.1,32.1,46.3,32.1c21.2,0,39.3-13.4,46.3-32.1C346,309,347.1,303.1,347.1,297
			C347.1,297,347.1,297,347.1,297z

M297.7,213.2c40.4,0,74.1,28.6,82.1,66.6h134.4C504.7,169.2,412,82.5,299,82.5S93.4,169.2,83.9,279.7
			h131.7C223.6,241.7,257.3,213.2,297.7,213.2z" stroke="#000" stroke-width="1" fill="#000"/>
</svg>